<svg xmlns="http://www.w3.org/2000/svg" xmlns:xlink="http://www.w3.org/1999/xlink" width="900" zoomAndPan="magnify" viewBox="0 0 675 675.000002" height="900" preserveAspectRatio="xMidYMid meet" version="1.2"><defs><clipPath id="82d395ea8f"><path d="M 0.5 0 L 674.5 0 L 674.5 674 L 0.5 674 Z M 0.5 0 "/></clipPath><clipPath id="390fdb9eed"><path d="M 34.199219 58 L 640.800781 58 L 640.800781 600 L 34.199219 600 Z M 34.199219 58 "/></clipPath><clipPath id="d330b001e6"><path d="M 91 472 L 594 472 L 594 664.082031 L 91 664.082031 Z M 91 472 "/></clipPath></defs><g id="243840d9aa"><g clip-rule="nonzero" clip-path="url(#82d395ea8f)"><path style=" stroke:none;fill-rule:nonzero;fill:#ffffff;fill-opacity:1;" d="M 0.5 0 L 674.5 0 L 674.5 674 L 0.5 674 Z M 0.5 0 "/><path style=" stroke:none;fill-rule:nonzero;fill:#ffffff;fill-opacity:1;" d="M 0.5 0 L 674.5 0 L 674.5 674 L 0.5 674 Z M 0.5 0 "/></g><g clip-rule="nonzero" clip-path="url(#390fdb9eed)"><path style=" stroke:none;fill-rule:nonzero;fill:#aabc38;fill-opacity:1;" d="M 640.710938 361.09375 C 640.710938 420.664062 623.480469 476.238281 593.742188 523.097656 C 540.007812 607.839844 446.214844 584.878906 338.378906 584.878906 C 311.617188 584.878906 292.316406 604.511719 267.601562 598.003906 C 250.070312 593.410156 245.007812 601.277344 228.886719 593.753906 C 181.449219 571.683594 121.433594 579.820312 91.183594 537.765625 C 55.390625 488.019531 34.332031 427.042969 34.332031 361.09375 C 34.332031 193.734375 170.046875 58.050781 337.5 58.050781 C 504.953125 58.050781 640.710938 193.734375 640.710938 361.09375 Z M 640.710938 361.09375 "/></g><path style=" stroke:none;fill-rule:nonzero;fill:#56352c;fill-opacity:1;" d="M 298.375 434.996094 C 298.375 434.996094 276.605469 416.511719 236.996094 430.148438 C 197.386719 443.796875 172.558594 449.238281 142.40625 434.996094 C 112.257812 420.75 107.535156 425.128906 107.535156 425.128906 C 107.535156 425.128906 103.394531 386.480469 118.765625 352.804688 C 134.140625 319.128906 159.554688 305.394531 161.324219 278.28125 C 163.097656 251.179688 156.601562 153.695312 184.964844 108.199219 C 213.34375 62.699219 255.519531 44.007812 284.6875 31.492188 C 313.84375 18.976562 360.003906 9.523438 387.757812 39.074219 C 387.757812 39.074219 429.707031 34.355469 453.941406 56.804688 C 478.179688 79.253906 505.378906 172.132812 507.734375 216.382812 C 510.101562 260.632812 533.160156 308.496094 544.390625 339.804688 C 555.621094 371.117188 548.53125 410.703125 548.53125 410.703125 C 548.53125 410.703125 546.757812 417.789062 511.292969 417.789062 C 475.824219 417.789062 479.964844 403.617188 453.941406 402.425781 C 427.921875 401.234375 382.625 425.472656 382.625 425.472656 L 298.359375 434.980469 Z M 298.375 434.996094 "/><path style=" stroke:none;fill-rule:nonzero;fill:#f9c99c;fill-opacity:1;" d="M 477.425781 486.003906 L 432.074219 560.332031 L 265.644531 586.183594 L 219.824219 495.148438 C 219.824219 495.148438 259.730469 482.816406 276.066406 462.875 C 283.46875 453.859375 284.148438 433.367188 282.746094 413.636719 C 281 389.65625 276.066406 366.777344 276.066406 366.777344 L 406.25 359.976562 C 406.25 359.976562 404.507812 375.28125 404.167969 393.523438 C 403.824219 413.679688 405.1875 437.449219 412.589844 448.375 C 426.628906 469.210938 477.425781 486.003906 477.425781 486.003906 Z M 477.425781 486.003906 "/><path style=" stroke:none;fill-rule:nonzero;fill:#d78d69;fill-opacity:1;" d="M 406.25 359.976562 C 406.25 359.976562 404.507812 375.28125 404.167969 393.523438 C 382.269531 418.300781 362.628906 447.453125 318.070312 438.042969 C 306.300781 435.546875 291.878906 424.136719 282.746094 413.636719 C 281 389.65625 276.066406 366.777344 276.066406 366.777344 Z M 406.25 359.976562 "/><path style=" stroke:none;fill-rule:nonzero;fill:#d78d69;fill-opacity:1;" d="M 220.546875 240.707031 C 217.992188 243.722656 216.25 247.339844 215.128906 251.136719 C 211.824219 262.320312 204.832031 290.382812 213.964844 301.609375 C 225.511719 315.78125 246.285156 303.917969 246.285156 303.917969 L 248.269531 259.429688 C 248.269531 259.429688 236.414062 221.953125 220.546875 240.707031 Z M 220.546875 240.707031 "/><path style=" stroke:none;fill-rule:nonzero;fill:#d78d69;fill-opacity:1;" d="M 459.105469 231.550781 C 461.65625 234.570312 463.402344 238.183594 464.523438 241.980469 C 467.828125 253.164062 474.816406 281.226562 465.683594 292.453125 C 454.140625 306.625 433.367188 294.761719 433.367188 294.761719 L 431.378906 250.273438 C 431.378906 250.273438 443.234375 212.796875 459.105469 231.550781 Z M 459.105469 231.550781 "/><path style=" stroke:none;fill-rule:nonzero;fill:#f9c99c;fill-opacity:1;" d="M 231.792969 254.453125 C 231.792969 254.453125 232.332031 343.238281 253.0625 363.433594 C 273.8125 383.628906 319.023438 407.03125 347.214844 407.03125 C 375.40625 407.03125 424.347656 364.101562 434.980469 343.039062 C 445.617188 321.976562 442.425781 262.433594 440.300781 237.96875 C 438.171875 213.507812 437.632812 144.933594 437.632812 144.933594 L 399.332031 84.328125 L 241.351562 84.328125 L 231.777344 254.453125 Z M 231.792969 254.453125 "/><path style="fill:none;stroke-width:3;stroke-linecap:round;stroke-linejoin:round;stroke:#7d2929;stroke-opacity:1;stroke-miterlimit:4;" d="M 178.410126 227.409166 C 178.410126 227.409166 189.488745 239.419952 215.119414 236.418634 C 240.750082 233.420071 247.680417 221.869542 247.680417 221.869542 " transform="matrix(1.418131,0,0,1.417346,34.303497,4.448203)"/><path style="fill:none;stroke-width:6;stroke-linecap:round;stroke-linejoin:round;stroke:#da8059;stroke-opacity:1;stroke-miterlimit:4;" d="M 207.729077 154.448737 L 209.348726 187.000228 " transform="matrix(1.418131,0,0,1.417346,34.303497,4.448203)"/><path style="fill:none;stroke-width:6;stroke-linecap:round;stroke-linejoin:round;stroke:#7d2929;stroke-opacity:1;stroke-miterlimit:4;" d="M 146.309125 138.510605 C 146.309125 138.510605 155.550489 132.039442 172.399796 130.890177 C 189.260121 129.740912 195.490811 138.510605 195.490811 138.510605 " transform="matrix(1.418131,0,0,1.417346,34.303497,4.448203)"/><path style="fill:none;stroke-width:6;stroke-linecap:round;stroke-linejoin:round;stroke:#7d2929;stroke-opacity:1;stroke-miterlimit:4;" d="M 231.508718 138.510605 C 231.508718 138.510605 236.59078 130.220461 254.371109 130.79096 C 272.148684 131.358703 279.999023 138.510605 279.999023 138.510605 " transform="matrix(1.418131,0,0,1.417346,34.303497,4.448203)"/><path style=" stroke:none;fill-rule:nonzero;fill:#3d1119;fill-opacity:1;" d="M 400.222656 226.304688 C 400.222656 227.316406 400.167969 228.316406 400.050781 229.304688 C 399.9375 230.296875 399.765625 231.257812 399.539062 232.191406 C 399.316406 233.125 399.039062 234.007812 398.710938 234.847656 C 398.382812 235.6875 398.011719 236.464844 397.59375 237.179688 C 397.179688 237.894531 396.722656 238.53125 396.234375 239.089844 C 395.746094 239.652344 395.226562 240.125 394.683594 240.511719 C 394.136719 240.898438 393.578125 241.191406 393 241.386719 C 392.421875 241.585938 391.835938 241.683594 391.246094 241.683594 C 390.65625 241.683594 390.074219 241.585938 389.496094 241.386719 C 388.917969 241.191406 388.355469 240.898438 387.8125 240.511719 C 387.265625 240.125 386.75 239.652344 386.261719 239.089844 C 385.769531 238.53125 385.316406 237.894531 384.898438 237.179688 C 384.484375 236.464844 384.109375 235.6875 383.785156 234.847656 C 383.457031 234.007812 383.179688 233.125 382.953125 232.191406 C 382.726562 231.257812 382.558594 230.296875 382.441406 229.304688 C 382.328125 228.316406 382.269531 227.316406 382.269531 226.304688 C 382.269531 225.296875 382.328125 224.296875 382.441406 223.304688 C 382.558594 222.316406 382.726562 221.351562 382.953125 220.421875 C 383.179688 219.488281 383.457031 218.601562 383.785156 217.761719 C 384.109375 216.921875 384.484375 216.144531 384.898438 215.429688 C 385.316406 214.71875 385.769531 214.078125 386.261719 213.519531 C 386.75 212.957031 387.265625 212.484375 387.8125 212.097656 C 388.355469 211.710938 388.917969 211.417969 389.496094 211.222656 C 390.074219 211.027344 390.65625 210.925781 391.246094 210.925781 C 391.835938 210.925781 392.421875 211.027344 393 211.222656 C 393.578125 211.417969 394.136719 211.710938 394.683594 212.097656 C 395.226562 212.484375 395.746094 212.957031 396.234375 213.519531 C 396.722656 214.078125 397.179688 214.71875 397.59375 215.429688 C 398.011719 216.144531 398.382812 216.921875 398.710938 217.761719 C 399.039062 218.601562 399.316406 219.488281 399.539062 220.421875 C 399.765625 221.351562 399.9375 222.316406 400.050781 223.304688 C 400.167969 224.296875 400.222656 225.296875 400.222656 226.304688 Z M 400.222656 226.304688 "/><path style=" stroke:none;fill-rule:nonzero;fill:#3d1119;fill-opacity:1;" d="M 291.863281 230.0625 C 291.863281 231.070312 291.808594 232.070312 291.691406 233.0625 C 291.578125 234.050781 291.40625 235.011719 291.179688 235.945312 C 290.957031 236.878906 290.679688 237.765625 290.351562 238.605469 C 290.023438 239.445312 289.652344 240.222656 289.234375 240.933594 C 288.820312 241.648438 288.363281 242.285156 287.875 242.847656 C 287.386719 243.410156 286.867188 243.882812 286.324219 244.269531 C 285.777344 244.65625 285.21875 244.945312 284.640625 245.144531 C 284.0625 245.339844 283.476562 245.441406 282.886719 245.441406 C 282.296875 245.441406 281.714844 245.339844 281.136719 245.144531 C 280.558594 244.945312 279.996094 244.65625 279.453125 244.269531 C 278.90625 243.882812 278.390625 243.410156 277.902344 242.847656 C 277.410156 242.285156 276.957031 241.648438 276.539062 240.933594 C 276.125 240.222656 275.75 239.445312 275.421875 238.605469 C 275.097656 237.765625 274.820312 236.878906 274.59375 235.945312 C 274.367188 235.011719 274.199219 234.050781 274.082031 233.0625 C 273.96875 232.070312 273.910156 231.070312 273.910156 230.0625 C 273.910156 229.050781 273.96875 228.050781 274.082031 227.0625 C 274.199219 226.070312 274.367188 225.109375 274.59375 224.175781 C 274.820312 223.242188 275.097656 222.355469 275.421875 221.519531 C 275.75 220.679688 276.125 219.902344 276.539062 219.1875 C 276.957031 218.472656 277.410156 217.835938 277.902344 217.273438 C 278.390625 216.714844 278.90625 216.238281 279.453125 215.855469 C 279.996094 215.46875 280.558594 215.175781 281.136719 214.980469 C 281.714844 214.78125 282.296875 214.683594 282.886719 214.683594 C 283.476562 214.683594 284.0625 214.78125 284.640625 214.980469 C 285.21875 215.175781 285.777344 215.46875 286.324219 215.855469 C 286.867188 216.238281 287.386719 216.714844 287.875 217.273438 C 288.363281 217.835938 288.820312 218.472656 289.234375 219.1875 C 289.652344 219.902344 290.023438 220.679688 290.351562 221.519531 C 290.679688 222.355469 290.957031 223.242188 291.179688 224.175781 C 291.40625 225.109375 291.578125 226.070312 291.691406 227.0625 C 291.808594 228.050781 291.863281 229.050781 291.863281 230.0625 Z M 291.863281 230.0625 "/><path style=" stroke:none;fill-rule:nonzero;fill:#56352c;fill-opacity:1;" d="M 182.796875 295.742188 C 182.796875 295.742188 223.085938 277.402344 244.640625 217.589844 C 266.183594 157.777344 247.832031 145.019531 264.992188 119.496094 C 282.148438 93.96875 311.222656 93.570312 331.1875 106.339844 C 351.15625 119.097656 379.476562 115.113281 391.246094 111.527344 C 403.019531 107.941406 412.945312 141.816406 425.765625 170.546875 C 438.585938 199.277344 451.519531 218.210938 464.167969 210.925781 C 464.167969 210.925781 474.234375 223.429688 477.425781 178.230469 C 480.632812 133.03125 444.921875 103.519531 419.210938 79.738281 C 393.503906 55.941406 332.578125 50.710938 291.863281 59.753906 C 251.148438 68.796875 231.792969 84.34375 231.792969 84.34375 L 182.78125 295.753906 Z M 182.796875 295.742188 "/><g clip-rule="nonzero" clip-path="url(#d330b001e6)"><path style=" stroke:none;fill-rule:nonzero;fill:#5c778b;fill-opacity:1;" d="M 593.726562 523.097656 C 539.996094 607.839844 445.335938 664.09375 337.484375 664.09375 C 310.726562 664.09375 284.816406 660.652344 260.097656 654.144531 L 209.554688 635.863281 C 162.121094 613.792969 121.40625 579.820312 91.15625 537.765625 C 101.027344 530.625 111.707031 525.136719 122.46875 520.714844 C 148.804688 509.957031 199.261719 501.113281 207.769531 495.160156 C 216.320312 489.207031 213.300781 485.507812 222.488281 484.148438 C 231.636719 482.746094 246.101562 519.1875 277.457031 538.832031 C 308.769531 558.515625 347.867188 565.449219 375.859375 559.621094 C 403.898438 553.796875 438.144531 524.796875 449.417969 507.707031 C 460.652344 490.613281 457.246094 475.984375 466.945312 473.09375 C 476.605469 470.203125 475.5 476.539062 485.707031 482.320312 C 495.960938 488.144531 549.226562 492.824219 590.878906 521.097656 C 591.855469 521.78125 592.792969 522.417969 593.726562 523.097656 Z M 593.726562 523.097656 "/></g><path style="fill:none;stroke-width:3;stroke-linecap:round;stroke-linejoin:round;stroke:#32181f;stroke-opacity:1;stroke-miterlimit:4;" d="M 101.399676 164.218869 C 101.399676 164.218869 122.479903 147.07084 133.170137 120.789321 C 143.86037 94.510558 152.399336 52.618875 181.619124 46.150468 C 207.729077 40.37107 213.541082 53.010231 213.541082 53.010231 " transform="matrix(1.418131,0,0,1.417346,34.303497,4.448203)"/><path style="fill:none;stroke-width:3;stroke-linecap:round;stroke-linejoin:round;stroke:#32181f;stroke-opacity:1;stroke-miterlimit:4;" d="M 252.098643 63.400471 C 252.098643 63.400471 262.271029 54.479196 274.448696 63.709147 C 283.130895 70.290551 294.369276 83.739986 301.530989 94.480241 " transform="matrix(1.418131,0,0,1.417346,34.303497,4.448203)"/></g></svg>